# xmcd CD database file
#
# Track frame offsets:
#	150
#	12344
#	26002
#	39712
#	55213
#	68025
#	84544
#	98872
#	112134
#	128531
#	143018
#	157418
#	173202
#	188588
#	200835
#	214873
#	228467
#	242925
#	255891
#	271532
#	286569
#
# Disc length: 4010 seconds
#
# Revision: 0
# Processed by: cddbd v1.5.2PL0 Copyright (c) Steve Scherf et al.
# Submitted via: CDex 1.70beta2
#
DISCID=280fa815
DTITLE=Glenn Miller - Glenn Miller Civilian band CD2
DYEAR=1900
DGENRE=Jazz
TTITLE0=Caribbean clipper
TTITLE1=That old black magic
TTITLE2=Here we go again
TTITLE3=The one i love belongs to somebody else
TTITLE4=Hear my sonf Violetta
TTITLE5=I dreamt i dwelt in Harlem
TTITLE6=It's always you
TTITLE7=Bugle call rag
TTITLE8=A nightingale sang in Berkeley square
TTITLE9=Farewell blues
TTITLE10=Blue rain
TTITLE11=Boulder buff
TTITLE12=Jingle bells
TTITLE13=I'm old fashioned
TTITLE14=Juke box saturday night (feat. If i didn't care and Ciribiribin)
TTITLE15=I must be Jelly
TTITLE16=You're always in my heart
TTITLE17=Dearly beloved
TTITLE18=Serenade in blue
TTITLE19=Rainbow rhapsody
TTITLE20=When Johnny comes marching home
EXTD=
EXTT0=
EXTT1=
EXTT2=
EXTT3=
EXTT4=
EXTT5=
EXTT6=
EXTT7=
EXTT8=
EXTT9=
EXTT10=
EXTT11=
EXTT12=
EXTT13=
EXTT14=
EXTT15=
EXTT16=
EXTT17=
EXTT18=
EXTT19=
EXTT20=
PLAYORDER=
